REM DIRINDEX 1\2\6,1\2\7,1\2\8,1\3\9,1\3\10,1\3\11,1\4\12,1\4\13,1\4\14,1\5\15,1\5\16,1\5\17,1\5\18
REM DIRNAME folder01,folder02,folder03,folder04,folder05,folder06,folder07,folder08,folder09,folder10,folder11,folder12,folder13,folder14,folder15,folder16,folder17,folder18
TITLE ""
FILE "" MP3
  TRACK 01 AUDIO
    TITLE "16:cjc019_7013"
    INDEX 01 00:00:00
  TRACK 02 AUDIO
    TITLE "0:"
    INDEX 01 00:01:03
  TRACK 03 AUDIO
    TITLE "18:cjc019_7014"
    INDEX 01 00:01:52
  TRACK 04 AUDIO
    TITLE "0:"
    INDEX 01 00:03:04
  TRACK 05 AUDIO
    TITLE "17:cjc019_7015"
    INDEX 01 00:03:57
  TRACK 06 AUDIO
    TITLE "0:"
    INDEX 01 00:04:72
  TRACK 07 AUDIO
    TITLE "16:cjc019_7016"
    INDEX 01 00:06:59
  TRACK 08 AUDIO
    TITLE "0:"
    INDEX 01 00:08:03
  TRACK 09 AUDIO
    TITLE "18:cjc019_7017"
    INDEX 01 00:08:62
  TRACK 10 AUDIO
    TITLE "0:"
    INDEX 01 00:10:27
  TRACK 11 AUDIO
    TITLE "17:cjc019_7018"
    INDEX 01 00:11:09
  TRACK 12 AUDIO
    TITLE "0:"
    INDEX 01 00:12:36
  TRACK 13 AUDIO
    TITLE "16:cjc019_7019"
    INDEX 01 00:14:15
  TRACK 14 AUDIO
    TITLE "0:"
    INDEX 01 00:15:25
  TRACK 15 AUDIO
    TITLE "18:cjc019_7020"
    INDEX 01 00:16:06
  TRACK 16 AUDIO
    TITLE "0:"
    INDEX 01 00:17:31
  TRACK 17 AUDIO
    TITLE "17:cjc019_7021"
    INDEX 01 00:18:11
  TRACK 18 AUDIO
    TITLE "0:"
    INDEX 01 00:19:24
  TRACK 19 AUDIO
    TITLE "16:cjc019_7022"
    INDEX 01 00:21:08
  TRACK 20 AUDIO
    TITLE "0:"
    INDEX 01 00:22:15
  TRACK 21 AUDIO
    TITLE "18:cjc019_7023"
    INDEX 01 00:22:70
  TRACK 22 AUDIO
    TITLE "0:"
    INDEX 01 00:26:52
  TRACK 23 AUDIO
    TITLE "17:cjc019_7024"
    INDEX 01 00:27:26
  TRACK 24 AUDIO
    TITLE "0:"
    INDEX 01 00:28:33
  TRACK 25 AUDIO
    TITLE "16:cjc019_7025"
    INDEX 01 00:30:16
  TRACK 26 AUDIO
    TITLE "0:"
    INDEX 01 00:31:39
  TRACK 27 AUDIO
    TITLE "18:cjc019_7026"
    INDEX 01 00:32:17
  TRACK 28 AUDIO
    TITLE "0:"
    INDEX 01 00:35:27
  TRACK 29 AUDIO
    TITLE "17:cjc019_7027"
    INDEX 01 00:36:03
  TRACK 30 AUDIO
    TITLE "0:"
    INDEX 01 00:37:30
  TRACK 31 AUDIO
    TITLE "16:cjc019_7028"
    INDEX 01 00:39:13
  TRACK 32 AUDIO
    TITLE "0:"
    INDEX 01 00:40:30
  TRACK 33 AUDIO
    TITLE "18:cjc019_7029"
    INDEX 01 00:41:20
  TRACK 34 AUDIO
    TITLE "0:"
    INDEX 01 00:44:16
  TRACK 35 AUDIO
    TITLE "17:cjc019_7030"
    INDEX 01 00:44:69
  TRACK 36 AUDIO
    TITLE "0:"
    INDEX 01 00:46:15
  TRACK 37 AUDIO
    TITLE "16:cjc019_7031"
    INDEX 01 00:48:00
  TRACK 38 AUDIO
    TITLE "0:"
    INDEX 01 00:49:27
  TRACK 39 AUDIO
    TITLE "18:cjc019_7032"
    INDEX 01 00:50:09
  TRACK 40 AUDIO
    TITLE "0:"
    INDEX 01 00:52:18
  TRACK 41 AUDIO
    TITLE "17:cjc019_7033"
    INDEX 01 00:52:69
  TRACK 42 AUDIO
    TITLE "0:"
    INDEX 01 00:54:27
  TRACK 43 AUDIO
    TITLE "16:cjc019_7034"
    INDEX 01 00:56:04
  TRACK 44 AUDIO
    TITLE "0:"
    INDEX 01 00:57:25
  TRACK 45 AUDIO
    TITLE "18:cjc019_7035"
    INDEX 01 00:58:05
  TRACK 46 AUDIO
    TITLE "0:"
    INDEX 01 01:01:27
  TRACK 47 AUDIO
    TITLE "17:cjc019_7036"
    INDEX 01 01:02:05
  TRACK 48 AUDIO
    TITLE "0:"
    INDEX 01 01:03:27
  TRACK 49 AUDIO
    TITLE "16:cjc019_7037"
    INDEX 01 01:05:11
  TRACK 50 AUDIO
    TITLE "0:"
    INDEX 01 01:06:22
  TRACK 51 AUDIO
    TITLE "18:cjc019_7038"
    INDEX 01 01:07:02
  TRACK 52 AUDIO
    TITLE "0:"
    INDEX 01 01:08:40
  TRACK 53 AUDIO
    TITLE "17:cjc019_7039"
    INDEX 01 01:09:20
  TRACK 54 AUDIO
    TITLE "0:"
    INDEX 01 01:10:39
  TRACK 55 AUDIO
    TITLE "16:cjc019_7040"
    INDEX 01 01:12:19
  TRACK 56 AUDIO
    TITLE "0:"
    INDEX 01 01:13:36
  TRACK 57 AUDIO
    TITLE "18:cjc019_7041"
    INDEX 01 01:14:25
  TRACK 58 AUDIO
    TITLE "0:"
    INDEX 01 01:15:54
  TRACK 59 AUDIO
    TITLE "17:cjc019_7042"
    INDEX 01 01:16:28
  TRACK 60 AUDIO
    TITLE "0:"
    INDEX 01 01:17:49
  TRACK 61 AUDIO
    TITLE "16:cjc019_7043"
    INDEX 01 01:19:25
  TRACK 62 AUDIO
    TITLE "0:"
    INDEX 01 01:20:51
  TRACK 63 AUDIO
    TITLE "18:cjc019_7044"
    INDEX 01 01:21:27
  TRACK 64 AUDIO
    TITLE "0:"
    INDEX 01 01:24:37
  TRACK 65 AUDIO
    TITLE "17:cjc019_7045"
    INDEX 01 01:25:13
  TRACK 66 AUDIO
    TITLE "0:"
    INDEX 01 01:26:42
  TRACK 67 AUDIO
    TITLE "16:cjc019_7046"
    INDEX 01 01:28:18
  TRACK 68 AUDIO
    TITLE "0:"
    INDEX 01 01:29:39
  TRACK 69 AUDIO
    TITLE "18:cjc019_7047"
    INDEX 01 01:30:20
  TRACK 70 AUDIO
    TITLE "0:"
    INDEX 01 01:32:64
  TRACK 71 AUDIO
    TITLE "17:cjc019_7048"
    INDEX 01 01:33:40
  TRACK 72 AUDIO
    TITLE "0:"
    INDEX 01 01:34:69
  TRACK 73 AUDIO
    TITLE "16:cjc019_7049"
    INDEX 01 01:36:56
  TRACK 74 AUDIO
    TITLE "0:"
    INDEX 01 01:37:69
  TRACK 75 AUDIO
    TITLE "18:cjc019_7050"
    INDEX 01 01:38:45
  TRACK 76 AUDIO
    TITLE "0:"
    INDEX 01 01:40:19
  TRACK 77 AUDIO
    TITLE "17:cjc019_7051"
    INDEX 01 01:40:70
  TRACK 78 AUDIO
    TITLE "0:"
    INDEX 01 01:42:12
  TRACK 79 AUDIO
    TITLE "16:cjc019_7052"
    INDEX 01 01:44:03
  TRACK 80 AUDIO
    TITLE "0:"
    INDEX 01 01:45:22
  TRACK 81 AUDIO
    TITLE "18:cjc019_7053"
    INDEX 01 01:46:08
  TRACK 82 AUDIO
    TITLE "0:"
    INDEX 01 01:51:52
  TRACK 83 AUDIO
    TITLE "17:cjc019_7054"
    INDEX 01 01:52:32
  TRACK 84 AUDIO
    TITLE "0:"
    INDEX 01 01:53:55
  TRACK 85 AUDIO
    TITLE "16:cjc019_7055"
    INDEX 01 01:55:38
  TRACK 86 AUDIO
    TITLE "0:"
    INDEX 01 01:56:69
  TRACK 87 AUDIO
    TITLE "18:cjc019_7056"
    INDEX 01 01:57:53
  TRACK 88 AUDIO
    TITLE "0:"
    INDEX 01 01:59:24
  TRACK 89 AUDIO
    TITLE "17:cjc019_7057"
    INDEX 01 02:00:04
  TRACK 90 AUDIO
    TITLE "0:"
    INDEX 01 02:01:39
  TRACK 91 AUDIO
    TITLE "16:cjc019_7058"
    INDEX 01 02:03:20
  TRACK 92 AUDIO
    TITLE "0:"
    INDEX 01 02:04:27
  TRACK 93 AUDIO
    TITLE "18:cjc019_7059"
    INDEX 01 02:05:13
  TRACK 94 AUDIO
    TITLE "0:"
    INDEX 01 02:07:49
  TRACK 95 AUDIO
    TITLE "17:cjc019_7060"
    INDEX 01 02:08:29
  TRACK 96 AUDIO
    TITLE "0:"
    INDEX 01 02:09:40
  TRACK 97 AUDIO
    TITLE "16:cjc019_7061"
    INDEX 01 02:11:21
  TRACK 98 AUDIO
    TITLE "0:"
    INDEX 01 02:12:40
  TRACK 99 AUDIO
    TITLE "18:cjc019_7062"
    INDEX 01 02:13:22
  TRACK 100 AUDIO
    TITLE "0:"
    INDEX 01 02:16:30
  TRACK 101 AUDIO
    TITLE "17:cjc019_7063"
    INDEX 01 02:17:12
  TRACK 102 AUDIO
    TITLE "0:"
    INDEX 01 02:18:27
  TRACK 103 AUDIO
    TITLE "16:cjc019_7064"
    INDEX 01 02:20:16
  TRACK 104 AUDIO
    TITLE "0:"
    INDEX 01 02:21:57
  TRACK 105 AUDIO
    TITLE "18:cjc019_7065"
    INDEX 01 02:22:37
  TRACK 106 AUDIO
    TITLE "0:"
    INDEX 01 02:24:12
  TRACK 107 AUDIO
    TITLE "17:cjc019_7066"
    INDEX 01 02:24:71
  TRACK 108 AUDIO
    TITLE "0:"
    INDEX 01 02:26:41
